<svg width="17" height="18" viewBox="0 0 17 18" fill="none" xmlns="http://www.w3.org/2000/svg">
<path d="M16.9179 4.99673C16.9179 8.5941 17.1357 17.7545 9.01739 17.7545C0.946391 17.7616 0.946391 8.56568 0.946391 4.99673C0.944646 4.75065 0.965255 4.50492 1.00797 4.26257C1.04543 3.94628 1.16626 3.64563 1.35809 3.39137C1.54993 3.13712 1.80587 2.93841 2.09973 2.81557C2.6253 2.6216 3.18333 2.53074 3.7433 2.54796C2.40523 3.34132 1.57635 4.42598 1.56214 5.62668C2.29629 7.62075 5.31581 9.11275 8.93213 9.11275C13.0837 9.11275 16.449 7.1471 16.4726 4.71491C16.1671 3.88365 15.4614 3.14239 14.4833 2.55506C14.922 2.56748 15.3553 2.65478 15.7645 2.8132C16.4987 3.12818 16.9179 3.76998 16.9179 4.99673Z" fill="#261B0B"/>
<path d="M8.96045 0C4.79469 0 1.37731 1.87092 1.00786 4.26285C0.986794 4.40475 0.976502 4.54805 0.977073 4.6915C0.99513 5.45743 1.28662 6.19163 1.79886 6.76135C3.10376 8.30782 5.82488 9.36643 8.96045 9.36643C12.5862 9.36643 15.6484 7.94548 16.6217 6.00588C16.7701 5.71455 16.8701 5.401 16.9178 5.07753C16.9366 4.94654 16.9461 4.81437 16.9462 4.68203C16.9462 2.09827 13.3701 0 8.96045 0ZM8.93203 9.11066C5.31571 9.11066 2.30093 7.61866 1.56203 5.62459C1.57624 4.42152 2.40513 3.33686 3.74319 2.54587C5.08125 1.75487 7.00664 1.23149 9.10254 1.23149C11.1984 1.23149 13.1144 1.73593 14.4832 2.55297C15.4613 3.1403 16.167 3.88156 16.4725 4.71282C16.4489 7.14501 13.0836 9.11066 8.93203 9.11066Z" fill="#261B0B"/>
<path d="M16.4726 4.68651V4.71256C16.1671 3.88131 15.4614 3.14005 14.4833 2.55272C13.1144 1.73567 11.208 1.23124 9.10262 1.23124C6.99725 1.23124 5.10976 1.73331 3.74328 2.54325C2.37679 3.35319 1.57633 4.42127 1.56212 5.62197C1.44909 5.31894 1.39134 4.99809 1.3916 4.67467C1.40492 3.98621 1.65593 3.32353 2.10208 2.79902C3.31462 1.30465 5.9197 0.260254 8.93211 0.260254C11.9445 0.260254 14.5614 1.30465 15.7645 2.81086C16.2098 3.3357 16.46 3.99834 16.4726 4.68651Z" fill="#3A2E20"/>
<path d="M16.4725 4.71277C16.4488 7.14497 13.0836 9.11061 8.93201 9.11061C5.31569 9.11061 2.30091 7.61862 1.56201 5.62455C1.57622 4.42148 2.40511 3.33682 3.74317 2.54582C5.08123 1.75483 7.00662 1.23145 9.10252 1.23145C11.1984 1.23145 13.1143 1.73588 14.4832 2.55293C15.4613 3.14026 16.167 3.88152 16.4725 4.71277Z" fill="#AAD9D9"/>
<path d="M15.2485 5.33076C15.0708 6.5883 12.9773 7.81506 12.6979 7.25852C12.551 6.94591 14.493 6.50778 14.6825 5.25024C14.8719 3.9927 12.9205 2.98383 13.3468 2.70911C13.6428 2.51018 15.4237 4.07559 15.2485 5.33076Z" fill="#6F9B65"/>
</svg>
