<svg width="8" height="14" viewBox="0 0 8 14" fill="none" xmlns="http://www.w3.org/2000/svg">
<path d="M0.724121 0.678711C0.724121 0.678711 0.724121 1.13518 0.770906 1.82556C0.771519 1.82933 0.771519 1.83318 0.770906 1.83694C0.770906 1.87488 0.773435 1.91408 0.778492 1.95454C0.779158 1.95569 0.779509 1.957 0.779509 1.95833C0.779509 1.95966 0.779158 1.96097 0.778492 1.96212C0.787343 2.07845 0.797459 2.2011 0.808839 2.32755C0.808839 2.32755 0.808839 2.33387 0.808839 2.3364C1.01115 4.61873 1.69395 8.45253 3.99272 8.45253C7.26384 8.45253 7.1374 0.678711 7.1374 0.678711H0.724121ZM3.99525 8.02894C3.41234 8.02894 2.94449 7.76088 2.57021 7.33097C2.88264 7.58758 3.27483 7.72711 3.67913 7.72547C6.17009 7.72547 6.55449 2.83712 6.61392 1.32611C6.81749 1.28565 6.80611 1.23886 6.80611 1.18955H6.81496C6.81496 1.18955 6.94141 8.02894 3.99525 8.02894Z" fill="#020202"/>
<path d="M4.24457 10.3403C4.24457 12.6618 5.11071 13.5444 3.96892 13.5444C2.90552 13.5444 3.7489 12.6592 3.7489 10.3403C3.7489 8.02126 3.44417 7.96436 3.93857 7.96436C4.43297 7.96436 4.24457 8.01873 4.24457 10.3403Z" fill="#020202"/>
<path d="M6.04359 13.3638C6.04359 13.5901 5.12686 13.7002 3.99518 13.7002C2.8635 13.7002 1.94678 13.5901 1.94678 13.3638C1.94678 13.1375 2.8635 12.791 3.99518 12.791C5.12686 12.791 6.04359 13.1375 6.04359 13.3638Z" fill="#020202"/>
<path d="M7.12995 0.67869C7.12995 0.869622 5.79596 1.02388 3.99538 1.02388C2.19481 1.02388 0.734375 0.869622 0.734375 0.67869C0.734375 0.487759 2.19355 0.333496 3.99538 0.333496C5.79722 0.333496 7.12995 0.487759 7.12995 0.67869Z" fill="#CDE1E7"/>
<path d="M6.81355 1.18945C6.81355 1.18945 6.81355 1.24888 6.81355 1.35636C6.81355 1.39514 6.81355 1.44066 6.81355 1.49292C6.81355 1.54518 6.81355 1.5907 6.81355 1.62948C6.75286 3.14682 6.49618 8.02885 4.00395 8.02885C3.59973 8.03006 3.20767 7.89058 2.89503 7.63434C1.68749 6.686 1.27148 4.23171 1.12607 2.63977C1.12607 2.63977 1.12607 2.63977 1.12607 2.63092C1.11469 2.50448 1.10584 2.37803 1.09573 2.2655V2.25791L1.08814 2.14032C1.08875 2.13655 1.08875 2.13271 1.08814 2.12894C1.05273 1.55994 1.05273 1.18945 1.05273 1.18945H6.81355Z" fill="#B7252C"/>
<path d="M6.44554 1.77246C6.44554 1.77246 6.44554 7.40431 4.09999 7.40431C3.63467 7.40431 3.5057 7.15142 3.8471 7.15142C5.83228 7.15142 6.13828 3.08749 6.18506 1.83189C6.34691 1.79901 6.44554 1.77246 6.44554 1.77246Z" fill="#A5202D"/>
<path d="M6.80628 1.18972C6.80628 1.23904 6.81766 1.28582 6.61409 1.32628C6.12854 1.42491 5.13848 1.49319 3.99542 1.49319C2.36807 1.49319 1.05811 1.35663 1.05811 1.18972C1.05811 1.09236 1.45641 1.01397 2.0861 0.965916C2.59947 0.920396 3.26709 0.892578 3.99542 0.892578C4.72374 0.892578 5.38631 0.920396 5.90473 0.965916C6.14564 0.984137 6.3854 1.01537 6.62294 1.05949C6.82145 1.09236 6.80628 1.14041 6.80628 1.18972Z" fill="#A5202D"/>
</svg>
