<svg width="21" height="20" viewBox="0 0 21 20" fill="none" xmlns="http://www.w3.org/2000/svg">
<path d="M18.0026 13.0749C19.9674 11.3982 19.6911 7.84779 17.386 5.14468C15.0808 2.44156 11.617 1.60812 9.65099 3.28457C9.10236 3.76011 8.70809 4.38853 8.51866 5.08942C8.47432 5.24011 8.38686 5.37454 8.26705 5.47612L3.22997 9.77219C2.93133 10.0271 2.86562 10.4388 3.0801 10.6911L9.65215 18.3968C9.86782 18.6493 10.2844 18.6475 10.583 18.3925L15.6201 14.0965C15.7392 13.9938 15.886 13.9285 16.042 13.9089C16.7639 13.8319 17.4465 13.5416 18.0026 13.0749Z" fill="#996D45"/>
<path d="M17.2218 12.2422C19.1878 10.5657 18.9115 7.0153 16.6051 4.31197C14.2988 1.60864 10.8362 0.775405 8.87133 2.45207C8.32191 2.92705 7.92715 3.55555 7.73783 4.25671C7.69395 4.40762 7.60641 4.54216 7.48622 4.64341L2.44926 8.9456C2.15062 9.20055 2.08491 9.61224 2.29821 9.86431L8.86896 17.5636C9.08344 17.8159 9.50116 17.8144 9.7998 17.5594L14.8357 13.2631C14.9548 13.1604 15.1016 13.0952 15.2577 13.0756C15.9808 12.9997 16.6647 12.7095 17.2218 12.2422Z" fill="#A37644"/>
<path d="M16.8106 11.9768C18.6688 10.3908 18.4417 7.07501 16.306 4.56235C14.1703 2.0497 10.9277 1.30984 9.07035 2.89117C8.55532 3.33685 8.1815 3.92311 7.9947 4.57808C7.94954 4.72585 7.8631 4.85762 7.74556 4.95791L3.02009 8.98794C2.72145 9.24289 2.65574 9.65458 2.87022 9.90686L8.90634 16.9837C9.122 17.2362 9.53853 17.2344 9.83717 16.9795L14.5615 12.9492C14.6793 12.8486 14.8236 12.784 14.9771 12.763C15.6516 12.6843 16.2886 12.4112 16.8106 11.9768Z" fill="#F9F2C7"/>
<path d="M10.532 4.95938C9.758 6.11726 7.60643 4.51839 7.56314 6.34878C7.52107 8.13178 6.71581 7.812 6.47921 8.25756C5.58394 9.93916 6.54276 13.1635 9.01364 12.1054C12.0557 10.8037 14.2434 13.1024 14.9232 12.0947C15.6029 11.0871 18.1368 9.7608 16.0696 7.60593C15.4241 6.93535 12.9218 1.37959 10.532 4.95938Z" fill="white"/>
<path d="M10.4859 9.79651C11.2667 9.93734 12.0138 9.41851 12.1547 8.63768C12.2955 7.85685 11.7767 7.10969 10.9958 6.96886C10.215 6.82803 9.46787 7.34686 9.32704 8.12769C9.18621 8.90852 9.70503 9.65568 10.4859 9.79651Z" fill="#F4DB24"/>
<path d="M11.9627 8.04382C12.0276 8.30696 11.9758 8.54662 11.8454 8.57925C11.715 8.61188 11.8449 8.35212 11.78 8.08899C11.7152 7.82586 11.4781 7.65859 11.6084 7.62596C11.7388 7.59333 11.8979 7.78069 11.9627 8.04382Z" fill="#F9F3E2"/>
</svg>
