<svg width="16" height="19" viewBox="0 0 16 19" fill="none" xmlns="http://www.w3.org/2000/svg">
<path d="M2.61392 3.07379L3.69121 16.2812C3.68851 16.8243 5.48142 17.2843 7.70006 17.3077C9.9187 17.3311 11.7266 16.9055 11.7316 16.362L11.7372 16.3608L12.7027 3.17399L2.61392 3.07379Z" fill="#F9F2E8"/>
<path d="M13.0623 3.47914C13.0717 2.61622 10.6489 1.89033 7.65082 1.85781C4.65277 1.82529 2.21478 2.49846 2.20542 3.36138C2.19606 4.2243 4.61887 4.95019 7.61692 4.98271C10.615 5.01523 13.053 4.34206 13.0623 3.47914Z" fill="#42331D"/>
<path d="M12.6411 2.33074C12.649 1.52852 10.397 0.855766 7.61097 0.828102C4.82496 0.800438 2.55999 1.42834 2.55202 2.23056C2.54406 3.03277 4.79611 3.70553 7.58213 3.7332C10.3681 3.76086 12.6331 3.13296 12.6411 2.33074Z" fill="#42331D"/>
<path d="M13.0441 3.34219L2.22721 3.16027L2.58844 2.07654L12.6418 2.29446L13.0441 3.34219Z" fill="#42331D"/>
<path d="M12.0312 2.25688C12.0379 1.57749 10.0904 1.00734 7.68113 0.983414C5.27192 0.959492 3.31339 1.49085 3.30665 2.17024C3.2999 2.84964 5.24749 3.41978 7.6567 3.44371C10.0659 3.46763 12.0244 2.93627 12.0312 2.25688Z" fill="#5E574E"/>
<path d="M8.31704 3.08683C8.31789 3.00111 8.02453 2.9287 7.66181 2.92509C7.29908 2.92149 7.00435 2.98807 7.00349 3.07379C7.00264 3.15952 7.296 3.23192 7.65873 3.23553C8.02145 3.23913 8.31619 3.17256 8.31704 3.08683Z" fill="#C1B5AA"/>
<path d="M2.92588 7.71065C4.45327 8.1045 6.02294 8.31088 7.60023 8.32523C9.22774 8.30857 10.7351 8.20913 12.3291 7.88029L12.0372 12.2583C12.0372 12.2583 10.5265 12.7246 7.55233 12.6964C4.5782 12.6682 3.11893 12.0731 3.11893 12.0731L2.92588 7.71065Z" fill="#D1A66A"/>
<path opacity="0.4" d="M8.82666 17.293C9.55632 16.1255 11.9399 10.3612 12.402 7.22363L11.7453 16.6363C10.213 17.293 9.11853 17.293 8.82666 17.293Z" fill="#BDAB92"/>
</svg>
