<svg width="18" height="10" viewBox="0 0 18 10" fill="none" xmlns="http://www.w3.org/2000/svg">
<path d="M17.369 6.42484C17.3668 4.64551 13.6149 3.20764 8.98892 3.21327C4.3629 3.2189 0.614521 4.66589 0.616686 6.44523C0.618851 8.22456 4.37074 9.66243 8.99676 9.6568C13.6228 9.65117 17.3712 8.20418 17.369 6.42484Z" fill="#ABABAB"/>
<path d="M17.3695 6.17435C17.3673 4.39502 13.6154 2.95715 8.98941 2.96277C4.36339 2.9684 0.615009 4.4154 0.617174 6.19473C0.619339 7.97407 4.37123 9.41194 8.99725 9.40631C13.6233 9.40069 17.3717 7.95368 17.3695 6.17435Z" fill="black"/>
<path d="M13.0427 7.15906C13.0629 6.51154 11.1493 5.92629 8.76844 5.85187C6.38761 5.77746 4.44116 6.24205 4.42092 6.88957C4.40068 7.53709 6.31432 8.12234 8.69515 8.19676C11.076 8.27117 13.0224 7.80658 13.0427 7.15906Z" fill="#F8EBB6"/>
<path d="M13.0866 5.72164L4.46484 5.45215L4.41994 6.88887L13.0417 7.15835L13.0866 5.72164Z" fill="#F8EBB6"/>
<path d="M13.0876 5.72156C13.1078 5.07404 11.1942 4.48879 8.81337 4.41437C6.43254 4.33996 4.48609 4.80455 4.46585 5.45207C4.44561 6.09959 6.35925 6.68484 8.74008 6.75926C11.1209 6.83367 13.0674 6.36908 13.0876 5.72156Z" fill="#E0B876"/>
<path d="M13.0954 5.44421C13.1156 4.79669 11.202 4.21145 8.82118 4.13703C6.44035 4.06261 4.4939 4.52721 4.47366 5.17473C4.45342 5.82225 6.36706 6.40749 8.74789 6.48191C11.1287 6.55633 13.0752 6.09174 13.0954 5.44421Z" fill="#F8EBB6"/>
<path d="M13.1393 4.00728L4.51758 3.73779L4.47267 5.17451L13.0944 5.44399L13.1393 4.00728Z" fill="#F8EBB6"/>
<path d="M13.1408 4.0072C13.1611 3.35968 11.2474 2.77443 8.86659 2.70002C6.48576 2.6256 4.53931 3.09019 4.51907 3.73772C4.49883 4.38524 6.41247 4.97048 8.7933 5.0449C11.1741 5.11932 13.1206 4.65472 13.1408 4.0072Z" fill="#E0B876"/>
<path d="M13.1491 3.74695C13.1694 3.09943 11.2557 2.51418 8.87489 2.43976C6.49406 2.36535 4.54761 2.82994 4.52737 3.47746C4.50713 4.12498 6.42077 4.71023 8.8016 4.78465C11.1824 4.85906 13.1289 4.39447 13.1491 3.74695Z" fill="#F8EBB6"/>
<path d="M13.193 2.30904L4.57129 2.03955L4.52638 3.47627L13.1481 3.74575L13.193 2.30904Z" fill="#F8EBB6"/>
<path d="M13.194 2.30945C13.2143 1.66193 11.3006 1.07668 8.91982 1.00226C6.53899 0.927847 4.59253 1.39244 4.57229 2.03996C4.55205 2.68748 6.46569 3.27273 8.84652 3.34715C11.2274 3.42156 13.1738 2.95697 13.194 2.30945Z" fill="#D6A661"/>
<path opacity="0.65" d="M6.28385 1.35153C5.98483 1.51708 5.06376 1.6031 5.18386 2.02325C5.30396 2.4434 6.10358 3.14721 6.10881 3.92588C6.11404 4.70455 6.78143 4.79983 6.99531 3.95375C7.20918 3.10767 7.36351 6.23611 8.31466 6.05956C9.2658 5.883 8.39093 4.17217 8.55131 3.89048C8.71168 3.60878 10.0647 3.30701 10.1805 4.45843C10.2963 5.60985 10.1529 6.62757 10.6542 6.24654C11.1556 5.86551 10.9375 4.43894 11.3083 4.0725C11.679 3.70607 12.7401 3.07078 12.7372 2.56263C12.7343 2.05448 12.9829 1.9334 12.9829 1.9334C12.9829 1.9334 12.6735 1.21273 9.8534 1.06202C7.03332 0.9113 6.93831 0.988479 6.28385 1.35153Z" fill="#7F5222"/>
<path d="M9.08055 1.626L7.8252 1.56152L7.8047 1.96052L9.06005 2.025L9.08055 1.626Z" fill="#F6ECC9"/>
<path d="M9.6133 1.85553L9.06469 2.02012L9.08552 1.62091L9.63413 1.45632L9.6133 1.85553Z" fill="#EFE5CA"/>
<path d="M9.08536 1.62085L7.83013 1.55663L8.37873 1.39204L9.63397 1.45626L9.08536 1.62085Z" fill="#FEF7DD"/>
</svg>
