<svg width="18" height="19" viewBox="0 0 18 19" fill="none" xmlns="http://www.w3.org/2000/svg">
<path d="M10.2025 0.865834C9.87211 0.568995 9.44365 0.404785 8.9995 0.404785C8.55535 0.404785 8.12688 0.568995 7.7965 0.865834L1.1965 6.79623C1.00884 6.96499 0.858775 7.17131 0.756028 7.40182C0.653282 7.63233 0.600155 7.88186 0.600098 8.13423V16.6002C0.600098 17.0776 0.78974 17.5355 1.12731 17.873C1.46487 18.2106 1.92271 18.4002 2.4001 18.4002H4.8001C5.27749 18.4002 5.73532 18.2106 6.07289 17.873C6.41046 17.5355 6.6001 17.0776 6.6001 16.6002V11.8002C6.6001 11.6411 6.66331 11.4885 6.77583 11.376C6.88835 11.2634 7.04097 11.2002 7.2001 11.2002H10.8001C10.9592 11.2002 11.1118 11.2634 11.2244 11.376C11.3369 11.4885 11.4001 11.6411 11.4001 11.8002V16.6002C11.4001 17.0776 11.5897 17.5355 11.9273 17.873C12.2649 18.2106 12.7227 18.4002 13.2001 18.4002H15.6001C16.0775 18.4002 16.5353 18.2106 16.8729 17.873C17.2105 17.5355 17.4001 17.0776 17.4001 16.6002V8.13423C17.4 7.88186 17.3469 7.63233 17.2442 7.40182C17.1414 7.17131 16.9914 6.96499 16.8037 6.79623L10.2037 0.865834H10.2025Z" fill="url(#paint0_linear_211_101)"/>
<defs>
<linearGradient id="paint0_linear_211_101" x1="9.5321" y1="-4.59395" x2="24.3218" y2="-1.69086" gradientUnits="userSpaceOnUse">
<stop stop-color="#CB8A58"/>
<stop offset="1" stop-color="#562B1A"/>
</linearGradient>
</defs>
</svg>
