<svg width="13" height="12" viewBox="0 0 13 12" fill="none" xmlns="http://www.w3.org/2000/svg">
<path d="M6.95535 11.2095L6.95374 11.211C6.66973 11.4688 6.23125 11.4687 5.94732 11.2071L5.94492 11.205L5.87617 11.1424L5.87529 11.1417C4.22419 9.6478 2.902 8.44866 1.99617 7.32582C1.09762 6.21201 0.66096 5.23531 0.695785 4.19209C0.728005 3.28339 1.19494 2.41423 1.93998 1.90697L1.94025 1.90678C3.34828 0.946765 5.10599 1.38239 6.06593 2.50596L6.44608 2.9509L6.82623 2.50596C7.78721 1.38117 9.54436 0.941764 10.9508 1.90606L10.9522 1.90697C11.6973 2.41431 12.1643 3.28369 12.1964 4.19256L12.1964 4.19295C12.234 5.23542 11.7979 6.2117 10.8983 7.32748C9.99314 8.45 8.67272 9.6497 7.02566 11.1462L7.01785 11.1533L7.0161 11.1549L6.95535 11.2095Z" stroke="white"/>
</svg>
